HIERARCHY
ROOT Hips
{
  OFFSET 0.000 69.810 0.000
  CHANNELS 6 Xposition Yposition Zposition Zrotation Xrotation Yrotation
  JOINT LeftUpLeg
  {
    OFFSET 6.862 0.156 3.406
    CHANNELS 3 Zrotation Xrotation Yrotation
    JOINT LeftLeg
    {
      OFFSET 0.000 -32.468 0.000
      CHANNELS 3 Zrotation Xrotation Yrotation
      JOINT LeftFoot
      {
        OFFSET 0.000 -37.499 0.000
        CHANNELS 3 Zrotation Xrotation Yrotation
        End Site
        {
          OFFSET 0.000 0.000 10.046
        }
      }
    }
  }
  JOINT RightUpLeg
  {
    OFFSET -6.862 0.156 3.406
    CHANNELS 3 Zrotation Xrotation Yrotation
    JOINT RightLeg
    {
      OFFSET 0.000 -32.468 0.000
      CHANNELS 3 Zrotation Xrotation Yrotation
      JOINT RightFoot
      {
        OFFSET 0.000 -37.499 0.000
        CHANNELS 3 Zrotation Xrotation Yrotation
        End Site
        {
          OFFSET 0.000 0.000 10.046
        }
      }
    }
  }
  JOINT Spine
  {
    OFFSET 0.000 34.300 0.000
    CHANNELS 3 Zrotation Xrotation Yrotation
    JOINT Spine1
    {
      OFFSET 0.000 25.000 0.000
      CHANNELS 3 Zrotation Xrotation Yrotation
      JOINT LeftShoulder
      {
        OFFSET 1.800 -0.600 0.200
        CHANNELS 3 Zrotation Xrotation Yrotation
        JOINT LeftArm
        {
          OFFSET 15.233 0.000 0.000
          CHANNELS 3 Zrotation Xrotation Yrotation
          JOINT LeftForeArm
          {
            OFFSET 22.753 0.000 0.000
            CHANNELS 3 Zrotation Xrotation Yrotation
            JOINT LeftHand
            {
              OFFSET 21.717 0.000 0.000
              CHANNELS 3 Zrotation Xrotation Yrotation
              JOINT LeftHandThumb1
              {
                OFFSET 0.000 0.000 0.000
                CHANNELS 3 Zrotation Xrotation Yrotation
                JOINT LeftHandThumb2
                {
                  OFFSET 0.000 0.000 0.000
                  CHANNELS 3 Zrotation Xrotation Yrotation
                  JOINT LeftHandThumb3
                  {
                    OFFSET 0.000 0.000 0.000
                    CHANNELS 3 Zrotation Xrotation Yrotation
                    End Site
                    {
                      OFFSET 0.000 0.000 0.000
                    }
                  }
                }
              }
              JOINT LeftHandIndex1
              {
                OFFSET 0.000 0.000 0.000
                CHANNELS 3 Zrotation Xrotation Yrotation
                JOINT LeftHandIndex2
                {
                  OFFSET 0.000 0.000 0.000
                  CHANNELS 3 Zrotation Xrotation Yrotation
                  JOINT LeftHandIndex3
                  {
                    OFFSET 0.000 0.000 0.000
                    CHANNELS 3 Zrotation Xrotation Yrotation
                    End Site
                    {
                      OFFSET 0.000 0.000 0.000
                    }
                  }
                }
              }
              JOINT LeftHandMiddle1
              {
                OFFSET 0.000 0.000 0.000
                CHANNELS 3 Zrotation Xrotation Yrotation
                JOINT LeftHandMiddle2
                {
                  OFFSET 0.000 0.000 0.000
                  CHANNELS 3 Zrotation Xrotation Yrotation
                  JOINT LeftHandMiddle3
                  {
                    OFFSET 0.000 0.000 0.000
                    CHANNELS 3 Zrotation Xrotation Yrotation
                    End Site
                    {
                      OFFSET 0.000 0.000 0.000
                    }
                  }
                }
              }
              JOINT LeftHandRing1
              {
                OFFSET 0.000 0.000 0.000
                CHANNELS 3 Zrotation Xrotation Yrotation
                JOINT LeftHandRing2
                {
                  OFFSET 0.000 0.000 0.000
                  CHANNELS 3 Zrotation Xrotation Yrotation
                  JOINT LeftHandRing3
                  {
                    OFFSET 0.000 0.000 0.000
                    CHANNELS 3 Zrotation Xrotation Yrotation
                    End Site
                    {
                      OFFSET 0.000 0.000 0.000
                    }
                  }
                }
              }
              JOINT LeftHandPinky1
              {
                OFFSET 0.000 0.000 0.000
                CHANNELS 3 Zrotation Xrotation Yrotation
                JOINT LeftHandPinky2
                {
                  OFFSET 0.000 0.000 0.000
                  CHANNELS 3 Zrotation Xrotation Yrotation
                  JOINT LeftHandPinky3
                  {
                    OFFSET 0.000 0.000 0.000
                    CHANNELS 3 Zrotation Xrotation Yrotation
                    End Site
                    {
                      OFFSET 0.000 0.000 0.000
                    }
                  }
                }
              }
            }
          }
        }
      }
      JOINT RightShoulder
      {
        OFFSET -1.800 -0.600 0.200
        CHANNELS 3 Zrotation Xrotation Yrotation
        JOINT RightArm
        {
          OFFSET -15.233 0.000 0.000
          CHANNELS 3 Zrotation Xrotation Yrotation
          JOINT RightForeArm
          {
            OFFSET -22.753 0.000 0.000
            CHANNELS 3 Zrotation Xrotation Yrotation
            JOINT RightHand
            {
              OFFSET -21.717 0.000 0.000
              CHANNELS 3 Zrotation Xrotation Yrotation
              JOINT RightHandThumb1
              {
                OFFSET -0.000 0.000 0.000
                CHANNELS 3 Zrotation Xrotation Yrotation
                JOINT RightHandThumb2
                {
                  OFFSET -0.000 0.000 0.000
                  CHANNELS 3 Zrotation Xrotation Yrotation
                  JOINT RightHandThumb3
                  {
                    OFFSET -0.000 0.000 0.000
                    CHANNELS 3 Zrotation Xrotation Yrotation
                    End Site
                    {
                      OFFSET -0.000 0.000 0.000
                    }
                  }
                }
              }
              JOINT RightHandIndex1
              {
                OFFSET -0.000 0.000 0.000
                CHANNELS 3 Zrotation Xrotation Yrotation
                JOINT RightHandIndex2
                {
                  OFFSET -0.000 0.000 0.000
                  CHANNELS 3 Zrotation Xrotation Yrotation
                  JOINT RightHandIndex3
                  {
                    OFFSET -0.000 0.000 0.000
                    CHANNELS 3 Zrotation Xrotation Yrotation
                    End Site
                    {
                      OFFSET -0.000 0.000 0.000
                    }
                  }
                }
              }
              JOINT RightHandMiddle1
              {
                OFFSET -0.000 0.000 0.000
                CHANNELS 3 Zrotation Xrotation Yrotation
                JOINT RightHandMiddle2
                {
                  OFFSET -0.000 0.000 0.000
                  CHANNELS 3 Zrotation Xrotation Yrotation
                  JOINT RightHandMiddle3
                  {
                    OFFSET -0.000 0.000 0.000
                    CHANNELS 3 Zrotation Xrotation Yrotation
                    End Site
                    {
                      OFFSET -0.000 0.000 0.000
                    }
                  }
                }
              }
              JOINT RightHandRing1
              {
                OFFSET -0.000 0.000 0.000
                CHANNELS 3 Zrotation Xrotation Yrotation
                JOINT RightHandRing2
                {
                  OFFSET -0.000 0.000 0.000
                  CHANNELS 3 Zrotation Xrotation Yrotation
                  JOINT RightHandRing3
                  {
                    OFFSET -0.000 0.000 0.000
                    CHANNELS 3 Zrotation Xrotation Yrotation
                    End Site
                    {
                      OFFSET -0.000 0.000 0.000
                    }
                  }
                }
              }
              JOINT RightHandPinky1
              {
                OFFSET -0.000 0.000 0.000
                CHANNELS 3 Zrotation Xrotation Yrotation
                JOINT RightHandPinky2
                {
                  OFFSET -0.000 0.000 0.000
                  CHANNELS 3 Zrotation Xrotation Yrotation
                  JOINT RightHandPinky3
                  {
                    OFFSET -0.000 0.000 0.000
                    CHANNELS 3 Zrotation Xrotation Yrotation
                    End Site
                    {
                      OFFSET -0.000 0.000 0.000
                    }
                  }
                }
              }
            }
          }
        }
      }
      JOINT Neck
      {
        OFFSET 0.000 0.800 0.000
        CHANNELS 3 Zrotation Xrotation Yrotation
        JOINT Head
        {
          OFFSET 0.000 6.121 0.000
          CHANNELS 3 Zrotation Xrotation Yrotation
          End Site
          {
            OFFSET 0.000 14.638 0.000
          }
        }
      }
    }
  }
}
MOTION
Frames:	4
Frame Time:	0.033333
26.56373 87.15812 -191.77383 3.57000 3.51438 -14.71040 2.80007 -3.55914 -9.37432 -6.76356 3.29950 2.40927 -0.43598 12.58082 0.02345 -24.85519 -26.75306 -29.00015 -66.83005 2.22101 29.05684 0.41911 -5.11108 19.67739 -0.59333 1.96584 -5.59987 -0.70767 2.36179 -5.28683 -4.83567 0.56947 -5.61224 -9.45518 -5.91851 -19.34603 64.78022 -35.14164 -68.20286 55.43925 12.47560 -3.43002 -24.67021 4.20391 -9.07576 0.00000 -0.00000 9.99461 -0.00001 0.00000 15.00420 -19.99454 -0.00000 -0.00000 -24.99587 -0.00000 0.00000 -29.90119 2.49234 -4.32773 -20.00344 0.00000 0.00000 -25.00373 -0.00000 0.00000 -29.90895 2.50334 -4.32890 -20.00344 0.00000 0.00000 -25.00373 -0.00000 0.00000 -29.90895 2.50334 -4.32890 -19.99454 -0.00000 -0.00000 -24.99587 -0.00000 0.00000 -29.90119 2.49234 -4.32773 19.50463 1.10515 3.10409 23.78505 -6.15007 10.43514 -108.08748 -41.12498 52.44538 -6.90456 -6.48186 10.18284 24.66257 4.20525 9.07465 -0.00000 0.00000 -9.99591 -0.00000 0.00000 -14.99624 19.99498 0.00000 -0.00000 24.99614 0.00000 -0.00000 29.90147 2.49245 4.32752 19.99498 0.00000 -0.00000 24.99614 0.00000 -0.00000 29.90147 2.49245 4.32752 19.99498 0.00000 -0.00000 24.99614 0.00000 -0.00000 29.90147 2.49245 4.32752 19.99498 0.00000 -0.00000 24.99614 0.00000 -0.00000 29.90147 2.49245 4.32752 0.00004 -0.00009 -0.00001 13.82427 8.86835 19.38599 
26.86343 87.17092 -191.49469 3.50912 3.61769 -14.13159 2.63406 -3.35101 -8.89162 -6.74410 3.11362 1.83839 -3.91227 21.15727 6.22546 -25.35856 -27.30728 -28.85637 -69.38486 3.11197 29.33143 1.72191 -7.45221 20.52091 -0.48932 1.95786 -5.63546 -0.63276 2.38290 -5.32021 -4.59851 0.52633 -5.62076 -10.14388 -6.23558 -19.38531 65.02035 -34.79611 -68.80551 54.96527 12.33919 -3.46513 -24.67021 4.20391 -9.07576 0.00000 -0.00000 9.99461 -0.00001 0.00000 15.00420 -19.99454 -0.00000 -0.00000 -24.99587 -0.00000 0.00000 -29.90119 2.49234 -4.32773 -20.00344 0.00000 0.00000 -25.00373 -0.00000 0.00000 -29.90895 2.50334 -4.32890 -20.00344 0.00000 0.00000 -25.00373 -0.00000 0.00000 -29.90895 2.50334 -4.32890 -19.99454 -0.00000 -0.00000 -24.99587 -0.00000 0.00000 -29.90119 2.49234 -4.32773 19.51900 1.09016 3.06173 24.05734 -5.97781 10.28504 -106.40929 -41.91269 53.15900 -5.41619 -7.40920 10.92897 24.66257 4.20525 9.07465 -0.00000 0.00000 -9.99591 -0.00000 0.00000 -14.99624 19.99498 0.00000 -0.00000 24.99614 0.00000 -0.00000 29.90147 2.49245 4.32752 19.99498 0.00000 -0.00000 24.99614 0.00000 -0.00000 29.90147 2.49245 4.32752 19.99498 0.00000 -0.00000 24.99614 0.00000 -0.00000 29.90147 2.49245 4.32752 19.99498 0.00000 -0.00000 24.99614 0.00000 -0.00000 29.90147 2.49245 4.32752 0.00004 -0.00009 -0.00001 14.12172 8.98196 18.39644 
27.08927 87.13450 -191.14078 3.54472 3.44914 -13.40373 2.27901 -2.91238 -8.76236 -6.67589 2.97589 1.24723 -2.67064 18.37353 4.33776 -25.73482 -27.63749 -28.61564 -66.65344 6.15418 30.23860 1.83652 -6.90969 20.48257 -0.36414 2.07408 -5.69484 -0.42160 2.36053 -5.39476 -4.41971 0.50349 -5.76082 -11.01421 -6.43649 -19.34926 65.19139 -34.50703 -69.38659 53.98276 11.76713 -2.88325 -24.67021 4.20391 -9.07576 0.00000 -0.00000 9.99461 -0.00001 0.00000 15.00420 -19.99454 -0.00000 -0.00000 -24.99587 -0.00000 0.00000 -29.90119 2.49234 -4.32773 -20.00344 0.00000 0.00000 -25.00373 -0.00000 0.00000 -29.90895 2.50334 -4.32890 -20.00344 0.00000 0.00000 -25.00373 -0.00000 0.00000 -29.90895 2.50334 -4.32890 -19.99454 -0.00000 -0.00000 -24.99587 -0.00000 0.00000 -29.90119 2.49234 -4.32773 19.27550 1.09721 3.14078 24.01089 -5.86727 10.07078 -104.55225 -42.65123 54.23263 -4.09651 -8.28988 11.11159 24.66257 4.20525 9.07465 -0.00000 0.00000 -9.99591 -0.00000 0.00000 -14.99624 19.99498 0.00000 -0.00000 24.99614 0.00000 -0.00000 29.90147 2.49245 4.32752 19.99498 0.00000 -0.00000 24.99614 0.00000 -0.00000 29.90147 2.49245 4.32752 19.99498 0.00000 -0.00000 24.99614 0.00000 -0.00000 29.90147 2.49245 4.32752 19.99498 0.00000 -0.00000 24.99614 0.00000 -0.00000 29.90147 2.49245 4.32752 0.00004 -0.00009 -0.00001 13.17534 9.32009 17.54377 
27.21260 87.05632 -190.73848 3.54897 3.38558 -12.68638 1.96539 -2.73786 -8.58603 -6.56414 3.23005 1.24168 -5.98301 25.06226 9.73168 -25.94334 -27.93390 -28.40114 -64.66161 10.89810 31.19433 2.48736 -7.93523 20.18367 -0.27246 2.06967 -5.78971 -0.31977 2.38778 -5.49021 -4.49655 0.54129 -6.29755 -11.17642 -6.91673 -18.41451 65.17855 -34.52770 -70.10065 52.56477 11.24054 -2.14076 -24.67021 4.20391 -9.07576 0.00000 -0.00000 9.99461 -0.00001 0.00000 15.00420 -19.99454 -0.00000 -0.00000 -24.99587 -0.00000 0.00000 -29.90119 2.49234 -4.32773 -20.00344 0.00000 0.00000 -25.00373 -0.00000 0.00000 -29.90895 2.50334 -4.32890 -20.00344 0.00000 0.00000 -25.00373 -0.00000 0.00000 -29.90895 2.50334 -4.32890 -19.99454 -0.00000 -0.00000 -24.99587 -0.00000 0.00000 -29.90119 2.49234 -4.32773 19.11995 1.16328 3.36846 23.65591 -5.77985 10.09102 -102.60604 -43.42781 55.57749 -3.17315 -9.07129 10.85695 24.66257 4.20525 9.07465 -0.00000 0.00000 -9.99591 -0.00000 0.00000 -14.99624 19.99498 0.00000 -0.00000 24.99614 0.00000 -0.00000 29.90147 2.49245 4.32752 19.99498 0.00000 -0.00000 24.99614 0.00000 -0.00000 29.90147 2.49245 4.32752 19.99498 0.00000 -0.00000 24.99614 0.00000 -0.00000 29.90147 2.49245 4.32752 19.99498 0.00000 -0.00000 24.99614 0.00000 -0.00000 29.90147 2.49245 4.32752 0.00004 -0.00009 -0.00001 12.67582 9.33171 16.88517 
